<svg xmlns="http://www.w3.org/2000/svg" viewBox="0 0 35.2 46.3"><defs><style>.cls-1{fill:none;stroke:#231f20;stroke-miterlimit:10;stroke-width:0.5px;}</style></defs><title>Asset 5</title><g id="Layer_2" data-name="Layer 2"><g id="Layer_1-2" data-name="Layer 1"><path class="cls-1" d="M33.4,3.5H26.2l.5,2.3v.8h5.1V42.9H3.3V6.6H8.5a1.1,1.1,0,0,1,0-.8L9,3.5H1.8A1.5,1.5,0,0,0,.3,5.1V44.5A1.5,1.5,0,0,0,1.8,46H33.4a1.5,1.5,0,0,0,1.5-1.5V5.1a1.6,1.6,0,0,0-1.5-1.6Z"/><path class="cls-1" d="M28.2,14.7H17.7a1.6,1.6,0,0,0-1.6,1.5,1.5,1.5,0,0,0,1.6,1.5H28.2a1.4,1.4,0,0,0,1.5-1.5,1.5,1.5,0,0,0-1.5-1.5Z"/><path class="cls-1" d="M28.2,24.1H17.7a1.6,1.6,0,0,0-1.6,1.6,1.6,1.6,0,0,0,1.6,1.5H28.2a1.5,1.5,0,0,0,1.5-1.5,1.5,1.5,0,0,0-1.5-1.6Z"/><path class="cls-1" d="M6,15a1.5,1.5,0,0,0-.2,2.2L8,19.9a1.8,1.8,0,0,0,1.2.5h.1a1.4,1.4,0,0,0,1.2-.7l4.1-6.6a1.6,1.6,0,0,0-.5-2.1,1.7,1.7,0,0,0-2.2.5L9,16.2l-.9-1A1.6,1.6,0,0,0,6,15Z"/><path class="cls-1" d="M9.7,23.3a2.4,2.4,0,1,0,0,4.7,2.4,2.4,0,0,0,0-4.7Z"/><path class="cls-1" d="M28.2,33.4H17.7a1.5,1.5,0,0,0-1.6,1.5,1.6,1.6,0,0,0,1.6,1.5H28.2a1.5,1.5,0,0,0,1.5-1.5,1.4,1.4,0,0,0-1.5-1.5Z"/><path class="cls-1" d="M9.7,32.6A2.3,2.3,0,1,0,12,34.9a2.3,2.3,0,0,0-2.3-2.3Z"/><path class="cls-1" d="M11,7.4H24.1a1.2,1.2,0,0,0,.8-.4,1,1,0,0,0,.2-.9l-1-5A1.1,1.1,0,0,0,23,.3H12.1a1,1,0,0,0-1,.8L10,6.1a1,1,0,0,0,.2.9,1.2,1.2,0,0,0,.8.4Z"/></g></g></svg>