<svg xmlns="http://www.w3.org/2000/svg" viewBox="0 0 47.2 41.5"><defs><style>.cls-1{fill:none;stroke:#231f20;stroke-miterlimit:10;stroke-width:0.5px;}</style></defs><title>Asset 4</title><g id="Layer_2" data-name="Layer 2"><g id="Layer_1-2" data-name="Layer 1"><path class="cls-1" d="M25.5,1.5c0,1.3.1,2.6.1,3.9h3.7V4.1h-.4a.5.5,0,0,1-.4-.6c0-.3.1-.5.4-.5h1.8a.5.5,0,0,1,.4.5c0,.3-.1.5-.4.5h-.4V5.4H34V1.4Z"/><path class="cls-1" d="M37.9,21c-.1-2.1-.1-4.2-.1-6.4s0-3.8-.1-5.8a3.3,3.3,0,0,0-2-3.2L35,5.3V1c0-.6-.2-.8-.7-.7H25.2c-.5,0-.7.1-.7.7s0,2.6.1,3.9v.5a3.8,3.8,0,0,0-2.7,4.1c.1,2,.1,4.1.1,6.1s0,4,.1,6a3.5,3.5,0,0,0,2.4,3.4h.3v1c0,.5.2.7.6.7h9.3c.4,0,.5-.2.6-.7s-.1-.7-.1-1C36.8,24.7,38,23.3,37.9,21ZM26.7,16.2c0-2.6,3.3-5.5,3.3-5.5l.2.3h-.1a.1.1,0,0,0-.1.1h-.1v.2h0c-.9,1.1-2.4,2.1-2.9,4A5.9,5.9,0,0,1,26.7,16.2Zm6.4-.5H33v.2h-.1v.2h0c-.1,0-.1,0-.1.1h0c-.1.1-.1.1-.1.2h-.1c-.1.1-.1.1-.1.2h0a.1.1,0,0,0-.1.1h-.1c-1.1,1.4-3.4,1.5-2.9,3h-.8a1.6,1.6,0,0,1-1-1.5c-.1-1.8,1.7-3.5,2.9-4.7h0c.1,0,.1-.1.2-.2a2.3,2.3,0,0,0,.7-1.9h.4V13h-.1c-.5,1.3-2.6,2.1-2.3,3.6s3-1.2,3.5-3.7v.3h.1ZM30.3,5.4V4.1h.4c.3,0,.4-.2.4-.5a.5.5,0,0,0-.4-.5H28.9c-.3,0-.4.2-.4.5a.5.5,0,0,0,.4.6h.4V5.4H25.6c0-1.3-.1-2.6-.1-3.9H34V5.3Z"/><path class="cls-1" d="M29.8,13.5v-.2H30a.1.1,0,0,1,.1-.1h.1l-.2-.3s-3.3,2.9-3.3,5.5a5.9,5.9,0,0,0,.2,1.3c.5-1.9,2-2.9,2.9-4Z"/><path class="cls-1" d="M33.1,15.4H33v-.3c-.5,2.5-3.5,3.7-3.5,3.7s1.8-2.3,2.3-3.6h.1v-.2h-.4a2.3,2.3,0,0,1-.7,1.9c-.1.1-.1.2-.2.2h0c-1.2,1.2-3,2.9-2.9,4.7a1.6,1.6,0,0,0,1,1.5h.8c-.5-1.5,1.8-1.6,2.9-3h.1a.1.1,0,0,1,.1-.1h0c0-.1,0-.1.1-.2h.1c0-.1,0-.1.1-.2h0c0-.1,0-.1.1-.1h0v-.2H33v-.2h.1Z"/><path class="cls-1" d="M41.3,27.1H17.1a1.2,1.2,0,0,1-1.1-.7L9,11.2A3.6,3.6,0,0,0,5.6,9H1.5a1.2,1.2,0,0,0,0,2.4H5.6a1.3,1.3,0,0,1,1.2.8l7,15.2a3.6,3.6,0,0,0,3.3,2.1H41.3a3.2,3.2,0,0,1,3.2,3.3A3.2,3.2,0,0,1,41.3,36h-26a1.2,1.2,0,1,0,0,2.4h4.5a1.5,1.5,0,0,0-.4,1.1,1.7,1.7,0,0,0,3.4,0,2.1,2.1,0,0,0-.4-1.1H36.5a1.5,1.5,0,0,0-.3.7.6.6,0,0,0-.1.4,1.7,1.7,0,0,0,1.7,1.7,1.7,1.7,0,0,0,1.6-1.1,1.3,1.3,0,0,0,.1-.6,1.5,1.5,0,0,0-.4-1.1h2.2a5.7,5.7,0,0,0,5.1-3.2,5,5,0,0,0,.6-2.4A5.7,5.7,0,0,0,41.3,27.1Z"/></g></g></svg>