<svg xmlns="http://www.w3.org/2000/svg" viewBox="0 0 260 66"><defs><style>.cls-1{fill:#ffd10a;}.cls-2{fill:#fff;}</style></defs><title>Asset 8</title><g id="Layer_2" data-name="Layer 2"><g id="Layer_1-2" data-name="Layer 1"><rect class="cls-1" width="260" height="66"/><path class="cls-2" d="M84.7,25.1a3.4,3.4,0,0,1-1.8-.4,4.4,4.4,0,0,1-1.5-1.2,8.9,8.9,0,0,1-.8-1.7,4.4,4.4,0,0,1-.1-2l.4-1.5a5,5,0,0,1,1.2-2.1A7.4,7.4,0,0,1,84,14.6a8.8,8.8,0,0,1,2.1-1.2,5.9,5.9,0,0,1,2.1-.4h6.1l-.6,2.5h-6a2.7,2.7,0,0,0-1.2.3l-1.2.8a5.7,5.7,0,0,0-1.1,1.1,4.1,4.1,0,0,0-.6,1.1v.3a4.9,4.9,0,0,0,.1,1.2,3.7,3.7,0,0,0,.5,1.1,3,3,0,0,0,.8.8l1,.3h1.4l.9-.2L89,22a.9.9,0,0,0,.4-.6l.2-1H86.4l.8-2.8h6l-.9,3.5a4.6,4.6,0,0,1-1.1,2.2l-1.8,1.2a7.9,7.9,0,0,1-2.2.5H84.7Z"/><path class="cls-2" d="M107.9,13l-3,12H102l2.4-9.5h-3.2l-1.1.2-1.1.4a3.9,3.9,0,0,0-1,.8,2.1,2.1,0,0,0-.6,1v.6h5.3l-.7,2.9H96.5L95.6,25H92.8l1.9-7.7a5.2,5.2,0,0,1,1.1-1.9,10.2,10.2,0,0,1,1.8-1.3,9,9,0,0,1,2.1-.8l2.1-.3Z"/><path class="cls-2" d="M112.5,25h-6.1l.6-2.5h6.8l1-.2a1.2,1.2,0,0,0,.9-.3,1,1,0,0,0,.5-.6.6.6,0,0,0-.5-.8l-2.1-.2h-2.2a4.8,4.8,0,0,1-1.8-.4,3.2,3.2,0,0,1-1.2-1.1,2.9,2.9,0,0,1-.1-1.9,6.5,6.5,0,0,1,1.1-2.2,6.6,6.6,0,0,1,1.7-1.2,5.8,5.8,0,0,1,1.9-.4h8.1l-.6,2.5h-6.8l-1.1.2a1.1,1.1,0,0,0-.8.3c-.3.1-.4.3-.5.6a.6.6,0,0,0,.5.8l2.1.2H116l1.9.4a3.2,3.2,0,0,1,1.2,1.1,3,3,0,0,1,0,1.9,5.6,5.6,0,0,1-1,2.2,6.6,6.6,0,0,1-1.7,1.2,5.8,5.8,0,0,1-1.9.4Z"/><path class="cls-2" d="M131.4,25.1a4.1,4.1,0,0,1-1.9-.4,5.3,5.3,0,0,1-1.4-1.2,3.8,3.8,0,0,1-.8-1.7,4.4,4.4,0,0,1-.1-2l.4-1.5a6.1,6.1,0,0,1,1.1-2.1,9.5,9.5,0,0,1,1.9-1.6,9.4,9.4,0,0,1,2.2-1.2,5.6,5.6,0,0,1,2.1-.4H141l-.6,2.5h-6.1l-1.1.3-1.3.8a5.2,5.2,0,0,0-1,1.1,4.1,4.1,0,0,0-.6,1.1v.3a2.4,2.4,0,0,0,0,1.2,3.9,3.9,0,0,0,.6,1.1,3,3,0,0,0,.8.8,1.7,1.7,0,0,0,1,.3h1.3l1-.2.7-.3a.7.7,0,0,0,.4-.6l.3-1h-3.2l.7-2.8h6.1l-.9,3.5a4,4,0,0,1-1.2,2.2,5.7,5.7,0,0,1-1.8,1.2,8,8,0,0,1-2.1.5h-2.5Z"/><path class="cls-2" d="M148.7,25l.4-1.5a1.3,1.3,0,0,0-.1-.6,1.4,1.4,0,0,0-.2-.7,1,1,0,0,0-.5-.6.9.9,0,0,0-.6-.3h-3.4l.7-2.8h1.9a9.8,9.8,0,0,0,2.6-.3,1.8,1.8,0,0,0,1.2-1.2.8.8,0,0,0-.2-.7,1.8,1.8,0,0,0-.7-.5l-1.1-.2h-4L142.3,25h-2.9l3-12h7.5l1.3.2,1.2.4.9.7a1.8,1.8,0,0,1,.4,1.1,2.7,2.7,0,0,1-.1,1.5,3.7,3.7,0,0,1-.9,1.9,4.4,4.4,0,0,1-1.5,1.2,3.4,3.4,0,0,1,.9,1.4,4.8,4.8,0,0,1,0,1.7l-.5,1.9Z"/><path class="cls-2" d="M168.1,13l-3,12h-2.8l2.3-9.5h-3.1l-1.1.2-1.2.4a3.9,3.9,0,0,0-1,.8,3.1,3.1,0,0,0-.5,1l-.2.6h5.3l-.7,2.9h-5.3l-.9,3.6H153l1.9-7.7a5.5,5.5,0,0,1,1.2-1.9,5.9,5.9,0,0,1,1.8-1.3,6.6,6.6,0,0,1,2.1-.8l2-.3Z"/><path class="cls-2" d="M175.9,13h2a4.7,4.7,0,0,1,1.7.4,2.5,2.5,0,0,1,1.1,1.2,2.8,2.8,0,0,1,0,2.2l-.3.8-.5.6-.5.4-.6.3.5.4.3.4c.1.2.1.4.2.6a2,2,0,0,1-.1.7,4.6,4.6,0,0,1-1.1,2.2,6.6,6.6,0,0,1-1.7,1.2,6.5,6.5,0,0,1-2,.4h-8.3l3-12ZM170,22.5h4.2l1.1-.2a1.2,1.2,0,0,0,.9-.3.6.6,0,0,0,.5-.6.4.4,0,0,0-.1-.5l-.6-.3h-4.4l.8-2.8h3.3l1.1-.2a1.1,1.1,0,0,0,.8-.3.5.5,0,0,0,.3-.5.4.4,0,0,0-.2-.6.9.9,0,0,0-.7-.3l-1.1-.2h-4.1Z"/><rect class="cls-2" x="118.7" y="48.7" width="2" height="2.25"/><rect class="cls-2" x="59.7" y="48.7" width="2" height="2.25"/><rect class="cls-2" x="29.7" y="48.7" width="2" height="2.25"/><path class="cls-2" d="M17.7,46H11.6l.6-2.5H19l1-.2a1.2,1.2,0,0,0,.9-.3,1,1,0,0,0,.5-.6.6.6,0,0,0-.5-.8l-2.1-.2H16.6a4.8,4.8,0,0,1-1.8-.4,3.2,3.2,0,0,1-1.2-1.1,2.9,2.9,0,0,1-.1-1.9,6.5,6.5,0,0,1,1.1-2.2,6.6,6.6,0,0,1,1.7-1.2,5.8,5.8,0,0,1,1.9-.4h8.1l-.7,2.5H18.9l-1.1.2a1.1,1.1,0,0,0-.8.3c-.3.1-.4.3-.5.6a.6.6,0,0,0,.5.8l2.1.2h2.1l1.9.4a3.2,3.2,0,0,1,1.2,1.1,3,3,0,0,1,0,1.9,5.6,5.6,0,0,1-1,2.2,6.6,6.6,0,0,1-1.7,1.2,5.8,5.8,0,0,1-1.9.4Z"/><path class="cls-2" d="M31,46.1a7.6,7.6,0,0,1-2.1-.3,5.3,5.3,0,0,1-1.7-.8,3.6,3.6,0,0,1-1-1.4,2.7,2.7,0,0,1-.2-1.8L27.9,34h2.9l-1.9,7.5a1.9,1.9,0,0,0,.8,1.6,3.6,3.6,0,0,0,1.9.5l1.1-.2,1.1-.4a3.9,3.9,0,0,0,1-.8,2.1,2.1,0,0,0,.6-1L37.2,34H40l-1.9,7.8a4.4,4.4,0,0,1-1.2,1.9A7,7,0,0,1,35.2,45a9,9,0,0,1-2.1.8Z"/><path class="cls-2" d="M47.6,34h2.9l-2.4,9.5h6.2L53.7,46H44.6Z"/><path class="cls-2" d="M60.9,46.1a7.1,7.1,0,0,1-2.1-.3,4.5,4.5,0,0,1-1.7-.8A3.8,3.8,0,0,1,56,43.6a3.5,3.5,0,0,1-.2-1.8l2-7.8h2.8l-1.8,7.5a1.9,1.9,0,0,0,.8,1.6,3.5,3.5,0,0,0,1.8.5l1.2-.2,1.1-.4a3.4,3.4,0,0,0,.9-.8,2.1,2.1,0,0,0,.6-1L67.1,34h2.8L68,41.8a7.6,7.6,0,0,1-1.2,1.9A5.9,5.9,0,0,1,65,45a6.6,6.6,0,0,1-2.1.8Z"/><path class="cls-2" d="M77.4,33.9a6.9,6.9,0,0,1,2,.3,5.3,5.3,0,0,1,1.7.8,4.5,4.5,0,0,1,1.1,1.3,4,4,0,0,1,.2,1.9l-2,7.8H77.6l.9-3.6H73.2l.7-2.9h5.3l.2-.7a1.6,1.6,0,0,0-.1-1,1.3,1.3,0,0,0-.6-.7l-.9-.5-1-.2a4.3,4.3,0,0,0-2.2.6,3.1,3.1,0,0,0-1.5,1.5L71.2,46H68.3l2-7.8a4.2,4.2,0,0,1,1.1-1.8A7.5,7.5,0,0,1,73.1,35l2.1-.8Z"/><path class="cls-2" d="M94.1,46a4.1,4.1,0,0,1-1.9-.4,7.1,7.1,0,0,1-1.7-1.1,5.9,5.9,0,0,1-1-1.7,4.4,4.4,0,0,1-.2-2l.4-1.5a5,5,0,0,1,1.2-2.1,7.4,7.4,0,0,1,1.9-1.6,11.3,11.3,0,0,1,2.1-1.2,6,6,0,0,1,2.2-.4h4.4l-.6,2.5H96.5a3,3,0,0,0-1.2.3l-1.2.8A5.7,5.7,0,0,0,93,38.7a4.1,4.1,0,0,0-.6,1.1v.3a2.4,2.4,0,0,0,0,1.2,3.7,3.7,0,0,0,.5,1.1,3,3,0,0,0,.8.8l1,.3h4.4L98.5,46Z"/><path class="cls-2" d="M99.9,46l3-12h2.9l-3,12Zm9.3,0,.9-3.6h-5.3l.7-2.9h5.3l1.4-5.5H115l-3,12Z"/><path class="cls-2" d="M114.9,40a6.7,6.7,0,0,1,1-2.3,8.6,8.6,0,0,1,1.8-2,7.3,7.3,0,0,1,2.3-1.3,7.5,7.5,0,0,1,2.6-.5,5.4,5.4,0,0,1,2.4.5,4.5,4.5,0,0,1,1.7,1.3,4.4,4.4,0,0,1,.8,2,4.6,4.6,0,0,1-.2,2.3,7.2,7.2,0,0,1-1,2.4,8.1,8.1,0,0,1-1.8,1.9,7.6,7.6,0,0,1-2.3,1.3,5.8,5.8,0,0,1-2.6.5,5.2,5.2,0,0,1-4-1.8,4.1,4.1,0,0,1-.8-1.9A4.9,4.9,0,0,1,114.9,40Zm2.8,0a2.3,2.3,0,0,0-.1,1.4,3.7,3.7,0,0,0,.5,1.1,2.4,2.4,0,0,0,.9.8l1.2.2,1.4-.2,1.2-.7a6.3,6.3,0,0,0,1.1-1.2,3.5,3.5,0,0,0,.6-1.4,3.4,3.4,0,0,0,.1-1.4,3.7,3.7,0,0,0-.5-1.1,1.8,1.8,0,0,0-.9-.8,2.5,2.5,0,0,0-1.2-.2,3.5,3.5,0,0,0-1.4.3l-1.2.7a6.3,6.3,0,0,0-1.1,1.2A3.8,3.8,0,0,0,117.7,40Z"/><path class="cls-2" d="M136.3,33.9a5.8,5.8,0,0,1,1.9.3,4.5,4.5,0,0,1,1.7.8,3.3,3.3,0,0,1,1.1,1.3,3.1,3.1,0,0,1,.3,1.9l-2,7.8h-2.8l1.8-7.2a1.6,1.6,0,0,0-.2-1,1.8,1.8,0,0,0-.5-.7l-.9-.5-1.1-.2a4.2,4.2,0,0,0-2.1.6,3.3,3.3,0,0,0-1.6,1.5L130.1,46h-2.9l1.9-7.8a5.4,5.4,0,0,1,1.1-1.8A6.2,6.2,0,0,1,132,35a10.2,10.2,0,0,1,2.1-.8Z"/><path class="cls-2" d="M146.9,46l3-12h2.9l-3.1,12Zm9.3,0,.9-3.6h-5.4l.8-2.9h5.3l1.4-5.5H162l-3,12Z"/><path class="cls-2" d="M161.8,40a9.7,9.7,0,0,1,1.1-2.3,11.2,11.2,0,0,1,1.7-2,10.5,10.5,0,0,1,2.3-1.3,8.6,8.6,0,0,1,2.7-.5,6,6,0,0,1,2.4.5,5.5,5.5,0,0,1,1.7,1.3,6,6,0,0,1,.8,2,6.2,6.2,0,0,1-.2,2.3,7.2,7.2,0,0,1-1,2.4,8.1,8.1,0,0,1-1.8,1.9,7.6,7.6,0,0,1-2.3,1.3,6,6,0,0,1-2.6.5,4.1,4.1,0,0,1-2.3-.5,3.7,3.7,0,0,1-1.7-1.3,4.1,4.1,0,0,1-.8-1.9A4.9,4.9,0,0,1,161.8,40Zm2.8,0a3.3,3.3,0,0,0,0,1.4,2.2,2.2,0,0,0,.5,1.1,2.4,2.4,0,0,0,.9.8l1.2.2,1.3-.2,1.3-.7a6.3,6.3,0,0,0,1.1-1.2,5.9,5.9,0,0,0,.6-1.4,3.3,3.3,0,0,0,0-1.4,2.1,2.1,0,0,0-.4-1.1,3.2,3.2,0,0,0-.9-.8,2.5,2.5,0,0,0-1.2-.2,3.5,3.5,0,0,0-1.4.3l-1.3.7a5.8,5.8,0,0,0-1,1.2A8.3,8.3,0,0,0,164.6,40Z"/><path class="cls-2" d="M183.3,33.9a6.3,6.3,0,0,1,1.9.3,4.5,4.5,0,0,1,1.7.8,3.3,3.3,0,0,1,1.1,1.3,2.5,2.5,0,0,1,.2,1.9L186.3,46h-2.9l.9-3.6H179l.7-2.9H185l.2-.7a1.1,1.1,0,0,0-.1-1,1.3,1.3,0,0,0-.6-.7,1.9,1.9,0,0,0-.9-.5l-1-.2a3.9,3.9,0,0,0-2.1.6,3.3,3.3,0,0,0-1.6,1.5L177,46h-2.8l1.9-7.8a4.2,4.2,0,0,1,1.1-1.8A6.2,6.2,0,0,1,179,35a10.2,10.2,0,0,1,2.1-.8A8.3,8.3,0,0,1,183.3,33.9Z"/><path class="cls-2" d="M196.8,33.9a6.9,6.9,0,0,1,2,.3,5.3,5.3,0,0,1,1.7.8,6.9,6.9,0,0,1,1.1,1.3,4,4,0,0,1,.2,1.9l-2,7.8H197l1.8-7.2a3.1,3.1,0,0,0-.1-1l-.6-.7-.9-.5-1-.2a4.3,4.3,0,0,0-2.2.6,3.3,3.3,0,0,0-1.6,1.5L190.6,46h-2.9l2-7.8a4.2,4.2,0,0,1,1.1-1.8,5.8,5.8,0,0,1,1.7-1.4l2.1-.8Z"/><path class="cls-2" d="M207.4,46l3-12h2.9l-3,12Zm9.3,0,.9-3.6h-5.3l.7-2.9h5.3l1.4-5.5h2.8l-3,12Z"/><path class="cls-2" d="M230.1,33.9a6.3,6.3,0,0,1,1.9.3,5.3,5.3,0,0,1,1.7.8,4.5,4.5,0,0,1,1.1,1.3,3.1,3.1,0,0,1,.2,1.9L233.1,46h-2.9l.9-3.6h-5.3l.7-2.9h5.3l.2-.7a1.6,1.6,0,0,0-.1-1,1.3,1.3,0,0,0-.6-.7,1.9,1.9,0,0,0-.9-.5l-1-.2a3.7,3.7,0,0,0-2.1.6,3.3,3.3,0,0,0-1.6,1.5L223.8,46H221l1.9-7.8a4.2,4.2,0,0,1,1.1-1.8,7.5,7.5,0,0,1,1.7-1.4l2.2-.8A8.3,8.3,0,0,1,230.1,33.9Z"/><path class="cls-2" d="M235.9,40a9.4,9.4,0,0,1,1-2.3,8.6,8.6,0,0,1,1.8-2,10.5,10.5,0,0,1,2.3-1.3,7.6,7.6,0,0,1,2.7-.5,6,6,0,0,1,2.4.5,4.2,4.2,0,0,1,1.6,1.3,4.4,4.4,0,0,1,.8,2,6,6,0,0,1-.1,2.3,7.4,7.4,0,0,1-1.1,2.4,8.1,8.1,0,0,1-1.8,1.9,6.5,6.5,0,0,1-2.3,1.3,5.8,5.8,0,0,1-2.6.5,4.6,4.6,0,0,1-2.3-.5,4,4,0,0,1-1.6-1.3,5.6,5.6,0,0,1-.9-1.9A6.6,6.6,0,0,1,235.9,40Zm2.8,0a3.3,3.3,0,0,0,0,1.4,2.1,2.1,0,0,0,.4,1.1,3.9,3.9,0,0,0,1,.8l1.2.2,1.3-.2,1.3-.7a5.8,5.8,0,0,0,1-1.2,3.5,3.5,0,0,0,.6-1.4,2.3,2.3,0,0,0,.1-1.4,2.2,2.2,0,0,0-.5-1.1,1.8,1.8,0,0,0-.9-.8,2.2,2.2,0,0,0-1.2-.2,3.1,3.1,0,0,0-1.3.3l-1.3.7a6.3,6.3,0,0,0-1.1,1.2A3.8,3.8,0,0,0,238.7,40Z"/><polygon class="cls-2" points="181.7 29.9 183.9 32 185.6 32 183.7 29 181.7 29.9"/><path class="cls-2" d="M228.9,30.5c.7-.1,1.1-.3,1.1-.9a.5.5,0,0,0-.5-.5c-.2,0-.6.1-.8.7l-1.2-.6a2.2,2.2,0,0,1,2-1.4,1.7,1.7,0,0,1,1.9,1.7,1.8,1.8,0,0,1-1.3,1.8V32h-1Z"/><path class="cls-2" d="M68.1,33.2c.9,0,1.4-.3,1.4-1.1s-.2-.5-.7-.5-.6.2-.9.8l-1.4-.7A2.6,2.6,0,0,1,68.9,30a2.1,2.1,0,0,1,2.2,2.1,2.2,2.2,0,0,1-1.6,2.1V35H68.3Z"/><path class="cls-2" d="M38.1,33.2c.9,0,1.4-.3,1.4-1.1s-.2-.5-.7-.5-.6.2-.9.8l-1.4-.7A2.6,2.6,0,0,1,38.9,30a2.1,2.1,0,0,1,2.2,2.1,2.2,2.2,0,0,1-1.6,2.1V35H38.3Z"/></g></g></svg>