<svg xmlns="http://www.w3.org/2000/svg" viewBox="0 0 115.1 92.6"><defs><style>.cls-1{fill:#0d2034;}.cls-2{fill:#ef3a2e;}.cls-3{fill:#fff;}</style></defs><title>Asset 9</title><g id="Layer_2" data-name="Layer 2"><g id="Layer_1-2" data-name="Layer 1"><path class="cls-1" d="M9.2,65.5c8.9-.4,17.7-.6,26.5-.8l26.5-.2,26.5.2c8.8.2,17.6.4,26.4.8-8.8.4-17.6.7-26.4.8l-26.5.3c-8.8,0-17.7-.1-26.5-.3S18.1,65.9,9.2,65.5Z"/><path class="cls-1" d="M24.7,46.7c6.7-5.2,15.1-6.6,24.7-4.8a81.1,81.1,0,0,1,8.4,2.5c1.9.6,3.7,1.5,5.6,2.2,4.9,1.7,7.3,1.8,12.9.6a13.5,13.5,0,0,1-12.9,2.9c-3.3-.8-6.3-2.2-9.5-3.3a88.8,88.8,0,0,0-10-3.1,26.8,26.8,0,0,0-17.5,2.1Z"/><path class="cls-1" d="M72.8,51.3A8.2,8.2,0,0,1,62,55.5L46.1,46.6C51.4,47.7,66,55.6,72.8,51.3Z"/><path class="cls-1" d="M86.3,65a9.7,9.7,0,0,1-3.4-.6,9.4,9.4,0,0,1-5.1-4.9,10.1,10.1,0,0,1,.1-7.8,10.6,10.6,0,0,1,9.6-6.5,10.2,10.2,0,0,1,3.4.6,9.4,9.4,0,0,1,5,5,9.8,9.8,0,0,1-.1,7.7A10.5,10.5,0,0,1,86.3,65Zm.9-17.1a7.6,7.6,0,0,0-6.9,4.6,7.1,7.1,0,0,0,0,5.7A6.7,6.7,0,0,0,84,61.9a6.9,6.9,0,0,0,2.5.4,7.5,7.5,0,0,0,6.9-4.6,7.1,7.1,0,0,0,.1-5.7,6.5,6.5,0,0,0-6.3-4.1Z"/><ellipse class="cls-1" cx="86.9" cy="55.1" rx="1.9" ry="1.8" transform="translate(-11.1 86.5) rotate(-50.2)"/><path class="cls-1" d="M45.4,57.7c0-.1.1-.3.1-.4l-.3.7Z"/><path class="cls-1" d="M44.9,58.6c0,.1-.1.2-.2.3S44.9,58.7,44.9,58.6Z"/><path class="cls-1" d="M45.6,56.9a.6.6,0,0,1-.1.4C45.6,57.2,45.6,57.1,45.6,56.9Z"/><path class="cls-1" d="M45.2,58l-.3.6Z"/><path class="cls-1" d="M44.7,58.9l-.5.7Z"/><path class="cls-1" d="M32.3,58.5l-1.1-.3-1.9-.3L17.4,56H16c0,.1,9.2,2.4,13.8,3.6l3.9.9h.4C33.6,59.4,33.2,58.8,32.3,58.5Z"/><path class="cls-1" d="M47.9,51c0-.1,0-.2-.1-.2a8.6,8.6,0,0,0-5-4.9,8,8,0,0,0-3.4-.7h-.2a10.3,10.3,0,0,0-9.3,6.4,7.2,7.2,0,0,0-.7,2.5H29l-7.1-1c-2.6-.4-5.3-.9-8-1.1L29,55.7l2.7.7a7.1,7.1,0,0,1,.6-3.8,7.5,7.5,0,0,1,6.9-4.7,5.6,5.6,0,0,1,2.5.5A6.3,6.3,0,0,1,45.4,52a6.9,6.9,0,0,1,.2,4.9c0,.2,0,.3-.1.4s-.1.3-.1.4l-.2.3-.3.6c0,.1-.1.2-.2.3l-.5.7a7.5,7.5,0,0,1-5.7,2.8H36.9l-7.5-.9-2.3-.3h-.3L25,60.8c-1.8-.3-3.9-.8-5.6-.9l10.7,3,3.8,1,2.9.9,1.4.2h.3a10.9,10.9,0,0,0,9.3-6.4A10,10,0,0,0,47.9,51Z"/><path class="cls-1" d="M85.1,42.8l-5.6-8.4,1.5.4c.7-2.6,1.4-5.1,2.2-7.8-2-.2-3.7.1-4.9,1.6a4.3,4.3,0,0,0-.9,2.6l-.9-1.3a4.3,4.3,0,0,1-.4-.7c-1.6-2.4-3-2.8-5.3-1.5l-2.6,1.4-3.3,2.1,5.3-.6,1.5-.9a1.8,1.8,0,0,1,2.6,1,.1.1,0,0,1,.1.1h0l.3.5h.1l3.1,4.7c-5.5-3.1-15.9-3.9-28,4.4-1.1.7-1,.5.2.6,6,.5,9.2,1.6,17.9,4.3,5.2.7,8.8.3,11-.7-3,3.9-7.1,9.3-8.4,10.7A7.5,7.5,0,0,1,64,57.7L45.1,55.2c-2.6-.4-5.2-1.2-8.1-1.6l4.6,4.8c6.9.6,13.8,1.4,20.7,1.9a10.5,10.5,0,0,0,8.1-2.4c2.1-1.9,9-11.3,10.8-13.9.2-.1.6-.7,1.1-1.2a2.1,2.1,0,0,0,.4.6l.9,1.3a10.1,10.1,0,0,1,2.3-.7c2.1-.4,4.2,0,7,1.2C91.4,43.4,88.2,42.5,85.1,42.8Z"/><path class="cls-2" d="M49.9,30.6c-.4-3.1-.6-6.3-.8-9.5l-.6-8.6a5.2,5.2,0,0,0-3.3-4.6l-1-.4V6.9c-.1-2-.3-3.9-.4-5.8S43.3,0,42.6,0L29,1c-.7.1-1,.3-.9,1.2s.3,3.9.4,5.8v.7c-2.7.9-3.9,3.4-3.6,6.3s.5,6.2.8,9.2l.6,8.9a5.1,5.1,0,0,0,3.9,4.8l.5.2a7.6,7.6,0,0,0,.1,1.5c0,.7.3,1,.9,1l13.8-1.1c.6,0,.9-.3.8-1.1a7.6,7.6,0,0,0-.1-1.5C48.5,36.2,50.2,34,49.9,30.6ZM29.6,2.6l12.6-.9.5,5.9L37.1,8V6.1h.6a.7.7,0,0,0,.5-.9.7.7,0,0,0-.6-.7l-2.7.2c-.4,0-.6.4-.6.8a.8.8,0,0,0,.7.8h.5l.2,1.9-5.5.4Z"/><path class="cls-3" d="M37.2,20.1h0a.3.3,0,0,0,.1-.2h0l.2-.3a.1.1,0,0,1,.1-.1h0c0-.1,0-.1.1-.2h0v-.2h0a.1.1,0,0,0,.1-.1h.1a.1.1,0,0,1-.1-.1h-.2a.1.1,0,0,0-.1-.1h0a.7.7,0,0,0-.3-.4s-4.7,4.5-4.4,8.4a9,9,0,0,0,.4,1.9C33.7,23.5,35.9,21.9,37.2,20.1Z"/><path class="cls-3" d="M41.4,26c0-.1,0-.1.1-.2h0c0-.1.1-.1.1-.2h0c0-.1.1-.1.1-.2h0v-.2h0V25h0v-.2h0c0-.1.1-.1.1-.2h0v-.2h0c0-.1.1-.1.1-.2h0V24h0v-.2h0c0-.1.1-.1.1-.2h0v-.2h0v-.2h0v-.2h0v-.2h0c0-.1-.1-.1-.1-.2h0v-.3H42a1.2,1.2,0,0,0-.1-.5c-.5,3.8-4.8,5.9-4.8,5.9-.6-2.2,2.5-3.6,3.1-5.6v-.2h.1v-.2h-.1V19h0c0-.1,0-.1-.1-.1h-.6a3.9,3.9,0,0,1-.9,3l-.2.3h0c-1.7,1.9-4.2,4.5-4,7.2A2.7,2.7,0,0,0,36,30.6h1.3c-1-2.3,2.5-2.6,3.9-4.8l.2-.2Z"/><path class="cls-2" d="M111.7,84.9a4.8,4.8,0,0,1-1.2,6.3,7.4,7.4,0,0,1-4,1.4H98.4c-.8,0-1-.2-.8-.9,1-4.5,2.1-9,3-13.5a1,1,0,0,1,1.1-.8c2.9,0,5.7-.1,8.6,0a3.5,3.5,0,0,1,3.4,2.4,4.5,4.5,0,0,1-1.1,4.5Zm-5.3-4.3a13.3,13.3,0,0,1-2,0c-.6,0-.9.2-1.1.9l-1.5,6.9c-.2.6-.1.9.6.9h3.4a4.5,4.5,0,0,0,2.3-.4,1,1,0,0,0,.8-1c-.1-.6-.6-.8-1.1-.9h-2.6c-2.5,0-1.9.1-1.6-2s.4-1.8,2.4-1.8a9.8,9.8,0,0,0,3.4-.3c.4-.2.9-.4.9-1s-.5-.7-.9-.9A10.5,10.5,0,0,0,106.4,80.6Z"/><path class="cls-2" d="M71.1,88.6c-.2,1-.5,2-.7,3.1a1,1,0,0,1-1.1.9c-2.8-.1-2.6.4-2-2.3s1.7-7.7,2.6-11.6c.3-1.3.3-1.3,1.6-1.3h3.9c1.4.1,3.2-.2,4.9.2s2.9,1.6,2.8,3.7a5.4,5.4,0,0,1-1.8,4.1c-.7.5-.8,1-.3,1.9s.1,3.3-.3,5-.3.3-.5.3h-1c-1.8,0-1.8,0-1.6-1.7a7.6,7.6,0,0,0-.1-1.5A1.9,1.9,0,0,0,75.6,88H73.3c-.7,0-1-.2-.9-.9a.4.4,0,0,0,.1-.3c.4-2.6.4-2.6,3-2.6a6.6,6.6,0,0,0,2.4-.3l.7-.3c.5-.4,1-.8.9-1.4A1.6,1.6,0,0,0,78.3,81c-1.6-.6-3.4-.3-5.1-.3s-.4.4-.5.7c-.5,2.4-1.1,4.8-1.6,7.2"/><path class="cls-2" d="M87.5,84.2h4.9c.9,0,.9.1.8.8-.5,2.9-.5,2.9-3.4,2.9H87.2a.8.8,0,0,0-.8.7,20,20,0,0,0-.5,2.6c-.3,1.3-.3,1.3-1.6,1.3s-2.2,0-1.7-2.2,1.1-4.5,1.5-6.8c.7-4,4.6-6,7.4-6.2s4.6,0,7,0c.8,0,.9.2.7,1l-3,13.2c-.1.7-.4,1-1.2,1-3.1,0-2.4.1-1.9-2.4s1.3-5.8,2-8.7c.1-.4.1-.8-.4-.8s-3.2-.3-4.6.4A3.5,3.5,0,0,0,87.5,84.2Z"/><path class="cls-2" d="M64.1,77.4h3.7c.6,0,.8.3.7.9-.2,2.3-.3,2.3-2.6,2.3H61.7a5.8,5.8,0,0,0-5.2,5.3,3.1,3.1,0,0,0,3.7,3.2h1.3a1.5,1.5,0,0,0,1.4-1.1c.3-.7.1-1-.7-1H60.4c-.6,0-.8-.3-.7-.8s.3-1.5.5-2.3a.9.9,0,0,1,1-.7h5.5c.5,0,.7.2.6.8l-.9,4c-.8,3.3-3.6,4.5-6,4.7a22.6,22.6,0,0,1-2.6,0,4.5,4.5,0,0,1-4.4-2.8,6.9,6.9,0,0,1-.3-4.7c.9-3.9,3.4-6.2,7-7.5C61.5,77.1,63,77.5,64.1,77.4Z"/><path class="cls-2" d="M19.5,84.2h4.7c1,0,1.1.1.8,1s-.3,1.2-.4,1.8-.4.9-1.1.9H19.2c-.6,0-.8.2-.9.8s-.5,2-.7,3-.4.8-1,.8c-3-.1-2.7.6-2.1-2.5s1.1-4.7,1.6-7a6.9,6.9,0,0,1,3.3-4.3,8.1,8.1,0,0,1,5-1.4h5.8c1,0,1.1.1.9,1l-3,13.4c-.2.6-.4.8-1,.8-3.3,0-2.7.3-2.1-2.4s1.3-5.8,1.9-8.6c.1-.4.2-.9-.3-.9s-3.7-.3-5.4.7A3.3,3.3,0,0,0,19.5,84.2Z"/><path class="cls-2" d="M46.1,77.4c-.3,3.2-.3,3.2-3.3,3.2-1.5,0-3,.1-4.4,0a6.5,6.5,0,0,0-2.1.4,1.4,1.4,0,0,0-1.1.7q-.3.8.6,1.2a5.5,5.5,0,0,0,1.8.2,21.7,21.7,0,0,1,3.6.2c2.3.6,3.1,1.6,2.8,4a5.5,5.5,0,0,1-4.9,5.1,13.5,13.5,0,0,1-3.5.2H30.3c-.9,0-.9-.1-.7-.9.6-2.9.2-2.4,2.9-2.4s4,0,6-.2a2.4,2.4,0,0,0,1.4-.5.9.9,0,0,0,.5-.9.8.8,0,0,0-.8-.7h-2a16.3,16.3,0,0,1-3.1-.3c-2.1-.3-3.5-1.8-2.9-4.2s2.7-5,6-5Z"/><path class="cls-2" d="M11.7,77.4h3.2c.9,0,1,.2.8,1-.6,2.4.1,2.2-2.6,2.2H8.9a5.6,5.6,0,0,0-5.1,5.6,2.9,2.9,0,0,0,3.5,2.9H8.5a2.4,2.4,0,0,0,1.5-.9c.5-.8.2-1.2-.7-1.3H8.8c-2,0-2,0-1.6-2a4.4,4.4,0,0,0,.2-1,1.1,1.1,0,0,1,1-.8h5.4c.7,0,.9.3.7.9s-.5,2.5-.8,3.7c-.8,3.4-3.4,4.6-6.1,4.9a22.5,22.5,0,0,1-2.6,0A4.3,4.3,0,0,1,.9,90.2,6,6,0,0,1,0,86.5a9.6,9.6,0,0,1,4.1-7.2,7.7,7.7,0,0,1,5.6-1.9Z"/></g></g></svg>