<svg xmlns="http://www.w3.org/2000/svg" viewBox="0 0 40.6 40.6"><defs><style>.cls-1{fill:none;stroke:#010101;stroke-miterlimit:10;stroke-width:0.5px;fill-rule:evenodd;}</style></defs><title>Asset 7</title><g id="Layer_2" data-name="Layer 2"><g id="Layer_1-2" data-name="Layer 1"><path id="USER" class="cls-1" d="M20.3,40.4A20.1,20.1,0,1,1,40.4,20.3,20,20,0,0,1,20.3,40.4ZM20.3,4A16.3,16.3,0,0,0,8.2,31.2c2.4-1.1,1.5-.2,4.6-1.4A24.5,24.5,0,0,0,16.7,28V25s-1.2-.9-1.6-3.7c-.7.2-1-.9-1-1.5s-.4-2.8.5-2.6a15.2,15.2,0,0,1-.3-3.3c.2-2.3,2.5-4.7,5.9-4.9s5.7,2.6,5.9,4.9a13.8,13.8,0,0,1-.2,3.3c.9-.2.5,1.9.4,2.6s-.2,1.7-1,1.5C25,24.1,23.9,25,23.9,25v3l3.9,1.7c3.1,1.3,2.2.4,4.6,1.5A16.3,16.3,0,0,0,20.3,4Z"/></g></g></svg>