<svg xmlns="http://www.w3.org/2000/svg" viewBox="0 0 30.5 39.5"><defs><style>.cls-1{fill:none;stroke:#231f20;stroke-miterlimit:10;stroke-width:0.5px;}</style></defs><title>Asset 6</title><g id="Layer_2" data-name="Layer 2"><g id="Layer_1-2" data-name="Layer 1"><path class="cls-1" d="M28,25.5V17.3A13.3,13.3,0,0,0,20,5,4.8,4.8,0,0,0,15.3.3,4.8,4.8,0,0,0,10.5,5a13.3,13.3,0,0,0-8,12.3v8.2A2.7,2.7,0,0,0,.3,28.3v1.9A2.7,2.7,0,0,0,2.9,33h7.8a5.1,5.1,0,0,0-.2,1.3,4.9,4.9,0,0,0,4.8,4.9A4.9,4.9,0,0,0,20,34.3a5.1,5.1,0,0,0-.2-1.3h7.8a2.8,2.8,0,0,0,2.7-2.8V28.3A2.8,2.8,0,0,0,28,25.5ZM15.3,36.6a2.3,2.3,0,0,1-2.2-2.3,2.3,2.3,0,0,1,.3-1.1h3.7a2.3,2.3,0,0,1-1.8,3.4Zm0-33.7a2.2,2.2,0,0,1,1.9,1.3L15.3,4l-2,.2a2.2,2.2,0,0,1,2-1.3ZM27.7,30.2H2.8V28.3a.1.1,0,0,1,.1-.1h.9a1.3,1.3,0,0,0,1.3-1.3V17.3A10.5,10.5,0,0,1,15.3,6.7c5.5,0,10.1,4.8,10.1,10.6v9.6a1.3,1.3,0,0,0,1.3,1.3h.9a.1.1,0,0,1,.1.1Z"/></g></g></svg>