<svg xmlns="http://www.w3.org/2000/svg" viewBox="0 0 24.1 39.9"><defs><style>.cls-1{fill:none;stroke:#231f20;stroke-miterlimit:10;stroke-width:0.5px;}</style></defs><title>Asset 3</title><g id="Layer_2" data-name="Layer 2"><g id="Layer_1-2" data-name="Layer 1"><path class="cls-1" d="M5.6,2.1V7.9h5.5V5.9h-.6a.8.8,0,0,1-.6-.8c0-.5.2-.8.6-.8h2.7c.4,0,.6.3.6.7a.8.8,0,0,1-.6.9h-.6V7.8h5.5V1.9Z"/><path class="cls-1" d="M23.8,31c-.1-3.2-.1-6.3-.1-9.5s0-5.7-.1-8.6a5.2,5.2,0,0,0-2.9-4.7l-1.1-.4V7.1c0-1.9,0-3.8-.1-5.7S19.3.2,18.5.3H5.1c-.8,0-1,.3-1,1.1s0,3.9.1,5.8V8C1.5,8.7.1,11.1.3,14s.1,6.1.1,9.2,0,5.8.1,8.7A5.1,5.1,0,0,0,4,37l.5.2v1.5c0,.7.3,1,.9,1l13.7-.2c.6,0,.9-.3.9-1a7.6,7.6,0,0,0-.1-1.5C22.2,36.4,24,34.3,23.8,31ZM7.4,23.8c-.1-3.9,4.8-8,4.8-8l.3.3h.3a.1.1,0,0,0-.1.1h0c0,.1,0,.1-.1.2h0v.2h0a.1.1,0,0,0-.1.1h0c0,.1-.1.1-.1.2h0a.1.1,0,0,0-.1.1l-.2.3h0l-.2.2h0c-1.3,1.7-3.6,3.1-4.3,5.9A11.1,11.1,0,0,1,7.4,23.8Zm9.3-.8h0v.2h0v.2h0v.2h0c-.1,0-.1.1-.1.2h0a.1.1,0,0,1-.1.1h0v.2h0v.2h-.1v.2h0c-.1.1-.1.1-.1.2h0c-.1.1-.1.1-.1.2h0c0,.1-.1.1-.1.2h0v.2h-.1c0,.1,0,.1-.1.2h0c0,.1-.1.1-.1.2-1.6,2-5.1,2.1-4.3,4.4H10.1a2.6,2.6,0,0,1-1.5-2.3c0-2.7,2.6-5.1,4.3-6.9H13l.2-.3a3.3,3.3,0,0,0,1.1-2.8h.6a.4.4,0,0,0,.1.3h-.1c-.8,2-3.9,3.2-3.5,5.4,0,0,4.5-1.8,5.2-5.5a2.8,2.8,0,0,0,.1.5h0v.2h0v.2h0v.2h0v.2h0v.2h0ZM12.6,7.8V5.9h.6a.8.8,0,0,0,.6-.9c0-.4-.2-.7-.6-.7H10.5c-.4,0-.6.3-.6.8a.8.8,0,0,0,.6.8h.6V7.8H5.6V2.1l12.5-.2V7.7Z"/><path class="cls-1" d="M11.9,19.8l.2-.2h0l.2-.3a.1.1,0,0,1,.1-.1h0c0-.1.1-.1.1-.2h0a.1.1,0,0,1,.1-.1h0v-.2h0c.1-.1.1-.1.1-.2h0a.1.1,0,0,1,.1-.1h-.3l-.3-.3s-4.9,4.1-4.8,8a11.1,11.1,0,0,0,.2,1.9c.7-2.8,3-4.2,4.3-5.9Z"/><path class="cls-1" d="M16.7,22.7h0v-.2h0v-.2h0v-.2h0v-.2h0a2.8,2.8,0,0,1-.1-.5c-.7,3.7-5.2,5.5-5.2,5.5-.4-2.2,2.7-3.4,3.5-5.4H15a.4.4,0,0,1-.1-.3h-.6a3.3,3.3,0,0,1-1.1,2.8l-.2.3h-.1c-1.7,1.8-4.3,4.2-4.3,6.9a2.6,2.6,0,0,0,1.5,2.3h1.2c-.8-2.3,2.7-2.4,4.3-4.4,0-.1.1-.1.1-.2h0c.1-.1.1-.1.1-.2h.1v-.2h0c0-.1.1-.1.1-.2h0c0-.1,0-.1.1-.2h0c0-.1,0-.1.1-.2h0v-.2h.1v-.2h0v-.2h0a.1.1,0,0,0,.1-.1h0c0-.1,0-.2.1-.2h0v-.2h0v-.2h0V23h0Z"/></g></g></svg>